<?xml version="1.0" standalone="no"?>
<!DOCTYPE svg PUBLIC "-//W3C//DTD SVG 20010904//EN"
 "http://www.w3.org/TR/2001/REC-SVG-20010904/DTD/svg10.dtd">
<svg version="1.0" xmlns="http://www.w3.org/2000/svg"
 width="95.000000pt" height="95.000000pt" viewBox="0 0 95.000000 95.000000"
 preserveAspectRatio="xMidYMid meet">
<metadata>
Created by potrace 1.11, written by Peter Selinger 2001-2013
</metadata>
<g transform="translate(0.000000,95.000000) scale(0.100000,-0.100000)"
fill="#000000" stroke="none">
<path d="M882 818 c-7 -7 -12 -17 -12 -23 0 -6 -18 -32 -39 -58 -22 -26 -50
-65 -62 -85 -12 -20 -23 -38 -24 -40 -1 -1 -11 -4 -23 -7 -52 -10 -71 -36 -78
-104 -9 -93 -33 -147 -91 -204 -41 -42 -113 -84 -113 -67 0 5 3 10 8 10 15 0
61 47 83 85 18 32 23 55 23 113 0 72 -1 74 -40 113 -48 48 -103 69 -163 63
-71 -7 -113 -40 -127 -99 -23 -94 23 -159 121 -170 25 -3 75 31 84 56 12 35 9
55 -12 79 -22 26 -62 25 -87 0 -25 -25 -29 -25 -23 0 14 53 86 65 134 22 25
-22 31 -36 32 -69 3 -116 -129 -167 -237 -90 -34 24 -66 89 -66 137 0 135 160
222 293 160 81 -38 135 -116 138 -200 0 -22 2 -21 13 9 37 103 -26 238 -139
296 -181 93 -400 -32 -409 -234 -5 -102 44 -200 128 -255 l39 -25 -29 -11
c-61 -23 -150 -58 -169 -66 -12 -6 88 -10 264 -12 340 -3 328 -6 375 108 45
109 60 133 114 181 55 50 60 79 23 130 l-20 27 50 46 c27 25 56 43 63 40 20
-8 27 10 13 30 -11 15 -19 11 -76 -43 -36 -34 -66 -59 -69 -56 -6 6 61 105 87
129 12 11 31 24 43 30 13 6 24 19 26 28 4 22 -31 41 -46 26z"/>
</g>
</svg>
